<svg id="SvgjsSvg1015" width="288" height="288" xmlns="http://www.w3.org/2000/svg" version="1.1" xmlns:xlink="http://www.w3.org/1999/xlink" xmlns:svgjs="http://svgjs.com/svgjs"><defs id="SvgjsDefs1016"></defs><g id="SvgjsG1017"><svg xmlns="http://www.w3.org/2000/svg" enable-background="new 0 0 24 24" viewBox="0 0 24 24" width="288" height="288"><path fill="#ffffff" d="M21.093,23.25H2.907c-1.192,0-2.157-0.966-2.157-2.157V2.907c0-1.192,0.966-2.157,2.157-2.157h18.185c1.192,0,2.157,0.966,2.157,2.157v18.185C23.25,22.284,22.284,23.25,21.093,23.25z" class="colorF34E39 svgShape"></path><path d="M14.5 24c-.299 0-.581-.18-.697-.475-.152-.385.036-.82.422-.973l8.75-3.46c.382-.153.821.036.973.422.152.385-.036.82-.422.973l-8.75 3.46C14.686 23.983 14.592 24 14.5 24zM23.251 14.21c-.234 0-.465-.109-.611-.314l-7.062-9.963c-.148-.209-.179-.479-.082-.717s.309-.408.561-.454l6.89-1.25c.308-.053.607.081.77.34l.15.24c.22.352.113.814-.237 1.034-.28.176-.631.144-.873-.055l-5.274.957 6.379 8.996c.24.337.163.805-.175 1.046C23.554 14.165 23.401 14.21 23.251 14.21z" fill="#61dafb" class="color000 svgShape"></path><path d="M0.749,16.36c-0.335,0-0.641-0.227-0.727-0.567c-0.101-0.401,0.144-0.81,0.545-0.91l5.1-1.28l17.401-4.5c0.398-0.101,0.81,0.144,0.909,0.546c0.101,0.401-0.144,0.809-0.546,0.909l-2.2,0.55l-20.299,5.23C0.871,16.354,0.81,16.36,0.749,16.36z" fill="#61dafb" class="color000 svgShape"></path><path d="M10.991,24c-0.26,0-0.512-0.135-0.65-0.376L0.101,5.854c-0.207-0.358-0.084-0.817,0.275-1.023c0.356-0.209,0.817-0.083,1.023,0.275l10.24,17.77c0.207,0.358,0.084,0.817-0.275,1.023C11.247,23.968,11.118,24,10.991,24z" fill="#61dafb" class="color000 svgShape"></path><path d="M21.25,24H2.75C1.233,24,0,22.767,0,21.25V2.75C0,1.233,1.233,0,2.75,0h18.5c1.371,0,2.542,1.028,2.724,2.391C23.988,2.508,24,2.629,24,2.75v18.5C24,22.767,22.767,24,21.25,24z M2.75,1.5C2.061,1.5,1.5,2.061,1.5,2.75v18.5c0,0.689,0.561,1.25,1.25,1.25h18.5c0.689,0,1.25-0.561,1.25-1.25V2.75c0-0.059-0.008-0.117-0.014-0.169C22.404,1.969,21.872,1.5,21.25,1.5H2.75z" fill="#61dafb" class="color000 svgShape"></path></svg></g></svg>